<svg id="todojs" xmlns="http://www.w3.org/2000/svg" xmlns:xlink="http://www.w3.org/1999/xlink" viewBox="0 0 620 145"><defs><style>.cls-1{fill:none;}.cls-2{fill:#c1272d;}.cls-3{clip-path:url(#clip-path);}.cls-4{fill:#f7f1e6;}.cls-5{fill:#2b3237;}.cls-6{fill:#f3dbbd;}.cls-7{fill:#d43d21;}</style><clipPath id="clip-path" transform="translate(-90 -244)"><rect class="cls-1" x="394" y="275" width="117" height="114.31"/></clipPath></defs><title>todojs-logo</title><g id="text"><path class="cls-2" d="M100.6,269.4a95.8,95.8,0,0,0,1.3,13.6,97.4,97.4,0,0,1,1.3,13.7c0,5.7-1.2,12.1-13.2,12.1V317c12,0,13.2,7,13.2,12a90.2,90.2,0,0,1-1.3,13.2,93.6,93.6,0,0,0-1.3,13.4c0,16.4,10.1,22.3,23.6,22.3H128v-9h-3.3c-9.1,0-12.8-5.1-12.8-14.2a73.4,73.4,0,0,1,1.1-11.7,75,75,0,0,0,.9-12.4c.2-10.4-3.9-15.9-11.9-17.7v-.3c8-2,12.1-7.2,11.9-17.6a76,76,0,0,0-1-12.4,72.3,72.3,0,0,1-1.1-11.7c0-8.8,3.3-14.1,12.9-14.1H128v-9h-3.8C110.4,248,100.6,254.5,100.6,269.4Z" transform="translate(-90 -244)"/><polygon class="cls-2" points="130 6 49 6 49 18 83 18 83 116 97 116 97 18 130 18 130 6"/><path class="cls-2" d="M253.9,279.2c-21.8,0-39,15.4-39,41.8s16.4,40.5,37.7,40.5c19,0,39.2-12.7,39.2-41.8C291.8,295.6,276.5,279.2,253.9,279.2Zm-.7,71.5c-14,0-23.9-13-23.9-30.2,0-15,7.3-30.6,24.2-30.6s23.6,16.9,23.6,30.2C277.1,337.9,266.9,350.7,253.2,350.7Z" transform="translate(-90 -244)"/><path class="cls-2" d="M378,339.3V244H363v46.8c-3.6-5.9-11.7-11.7-23.6-11.7-19.2,0-35.4,16.1-35.3,42.3,0,23.9,14.6,40,33.6,40,12.8,0,22.4-6.4,26.8-15.4h.3l.7,14h12.8C377.9,354,378,346.3,378,339.3Zm-15.4-6.5c-2.6,10.7-11.3,17.1-20.9,17.1-15.4,0-23.2-13.2-23.2-29.1s8.8-30.4,23.6-30.4c10.7,0,18.3,7.5,20.4,16.6a25,25,0,0,1,.4,6v13.7A25.2,25.2,0,0,1,362.6,332.8Z" transform="translate(-90 -244)"/><path class="cls-2" d="M696.8,296.7a96.9,96.9,0,0,1,1.3-13.7,96.7,96.7,0,0,0,1.3-13.6c0-15-9.9-21.4-23.7-21.4H672v9h3.3c9.4,0,12.8,5.3,12.8,14.1a96.4,96.4,0,0,1-1.1,11.6c-.6,4.1-1.5,8-1.5,12.4,0,10.4,4.5,15.6,11.5,17.6v.3c-7,1.8-11.5,7.3-11.5,17.7a73.7,73.7,0,0,0,1.4,12.4,99.2,99.2,0,0,1,1.2,11.8c0,9.1-3.8,14.2-12.9,14.2H672v9h3.8c13.3,0,23.6-5.9,23.6-22.3a93,93,0,0,0-1.3-13.4,90.5,90.5,0,0,1-1.3-13.2c0-5,1.2-12,13.2-12v-8.3C698,308.8,696.8,302.4,696.8,296.7Z" transform="translate(-90 -244)"/><path class="cls-2" d="M544,322.4c0,21.6-7.5,27.3-20.3,27.3a34,34,0,0,1-11.9-2.1l-2.1,11.6a45.4,45.4,0,0,0,15.1,2.6c19,0,33.2-9,33.2-38.3V250H544Z" transform="translate(-90 -244)"/><path class="cls-2" d="M615,297.5c-15.2-5.9-21.9-11-21.9-21.3,0-7.5,5.7-16.5,20.8-16.5a43.9,43.9,0,0,1,20.9,5.2l3.9-11.6c-4.9-2.8-13.1-5.4-24.4-5.4-21.4,0-35.6,12.8-35.6,29.9,0,15.5,11.1,24.9,29.1,31.2,14.9,5.7,20.8,11.6,20.8,21.9s-8.5,18.8-23.1,18.8a50.4,50.4,0,0,1-25.5-7.2l-3.6,11.9c5.9,3.9,17.5,7,28.1,7,26,0,38.6-14.7,38.6-31.7S633.6,304.7,615,297.5Z" transform="translate(-90 -244)"/></g><g id="icon"><g class="cls-3"><path class="cls-4" d="M457.6,337.2a10.7,10.7,0,0,1,1.8-1.4,28.4,28.4,0,0,0-1.6-39.3,30.3,30.3,0,0,0-42,0,28.4,28.4,0,0,0,0,40.9,30.3,30.3,0,0,0,40.3,1.5,10.6,10.6,0,0,1,1.5-1.8Zm-14.4-8-3,2.8a3.8,3.8,0,0,1-5.7,0l-3-2.8c-4.6-4.2-10.2-9.4-11-14s0-6,1.6-8,4.1-3.2,7.5-3.6h.9a11.1,11.1,0,0,1,6.8,2.4,11.1,11.1,0,0,1,6.8-2.4h.9c3.4.4,5.9,1.5,7.5,3.6s2.1,4.7,1.6,8-6.4,9.8-11,14Zm0,0" transform="translate(-90 -244)"/><path class="cls-5" d="M508.3,374.6l-30.5-29.7a10.2,10.2,0,0,1-3,9,10.8,10.8,0,0,1-7.6,3.1h-1.6L496,386.5a8.8,8.8,0,0,0,12.2,0,8.3,8.3,0,0,0,0-11.9Zm0,0" transform="translate(-90 -244)"/></g><path class="cls-6" d="M456.1,338.9l1.7-1.5,1.6-1.7a10.5,10.5,0,0,0-3.3,3.2Zm0,0" transform="translate(-90 -244)"/><path class="cls-6" d="M474.8,353.9a10.2,10.2,0,0,0,0-14.8l-1-1a42.2,42.2,0,0,1-6.6,8.3,43,43,0,0,1-8.5,6.5l1,1a10.8,10.8,0,0,0,5.9,2.9h1.6a10.8,10.8,0,0,0,7.6-3.1Zm0,0" transform="translate(-90 -244)"/><path class="cls-5" d="M467.1,346.5a42.1,42.1,0,0,0,6.6-8.3,40.9,40.9,0,0,0-6.6-50.7,43.7,43.7,0,0,0-60.6,0,41,41,0,0,0,0,59,43.5,43.5,0,0,0,60.6,0Zm-51.3-9a28.4,28.4,0,0,1,0-40.9,30.3,30.3,0,0,1,42,0,28.4,28.4,0,0,1,1.6,39.3l-1.6,1.7-1.7,1.5a30.3,30.3,0,0,1-40.3-1.5Zm0,0" transform="translate(-90 -244)"/><path class="cls-7" d="M452.6,307.2c-1.6-2.1-4.1-3.2-7.5-3.6h-.9a11.1,11.1,0,0,0-6.8,2.4,11.1,11.1,0,0,0-6.8-2.4h-.9c-3.4.4-5.9,1.5-7.5,3.6s-2.1,4.7-1.6,8,6.4,9.8,11,14l3,2.8a3.8,3.8,0,0,0,5.7,0l3-2.8c4.6-4.2,10.2-9.4,11-14s0-6-1.6-8Zm0,0" transform="translate(-90 -244)"/></g></svg>